<svg width="190" height="41" viewBox="0 0 190 41" fill="none" xmlns="http://www.w3.org/2000/svg">
<g clip-path="url(#clip0)">
<path d="M184.845 28.9317C183.973 28.9465 183.106 28.7994 182.289 28.4982C181.563 28.2181 180.914 27.7724 180.397 27.198C179.866 26.6016 179.467 25.9035 179.224 25.1478C178.953 24.2787 178.821 23.3732 178.834 22.4642C178.816 21.295 179.043 20.1347 179.502 19.0557C179.904 18.1027 180.575 17.282 181.435 16.69C182.324 16.1075 183.374 15.8086 184.442 15.834C185.245 15.8203 186.043 15.9606 186.792 16.2468C187.468 16.5177 188.069 16.9421 188.546 17.4854C189.045 18.0629 189.417 18.7358 189.637 19.4616C189.891 20.3147 190.014 21.2002 190.001 22.0888C190.001 22.2467 189.977 22.6565 189.931 23.3068H182.008C182.103 24.5027 182.424 25.3711 182.963 25.8837C183.251 26.1457 183.589 26.349 183.958 26.4816C184.326 26.6143 184.718 26.6737 185.111 26.6565C185.648 26.6597 186.181 26.5683 186.685 26.3867C187.243 26.1736 187.772 25.8945 188.26 25.5555L189.525 27.2654C188.861 27.7995 188.111 28.2213 187.305 28.5137C186.516 28.7927 185.684 28.9342 184.845 28.9317ZM184.512 17.9674C184.175 17.9536 183.84 18.02 183.534 18.1607C183.229 18.3015 182.963 18.5125 182.758 18.776C182.337 19.3116 182.086 20.1824 182.006 21.3646H186.97V21.2242C186.97 20.1439 186.763 19.322 186.356 18.7815C186.14 18.5082 185.859 18.2911 185.537 18.1492C185.216 18.0072 184.864 17.9448 184.512 17.9674ZM145.902 28.9313C145.03 28.9464 144.163 28.7994 143.347 28.4982C142.62 28.2185 141.971 27.7729 141.454 27.1984C140.923 26.6019 140.524 25.9038 140.282 25.1481C140.01 24.2791 139.878 23.3736 139.891 22.4645C139.873 21.2954 140.1 20.1351 140.559 19.056C140.961 18.1031 141.631 17.2824 142.492 16.6903C143.38 16.108 144.43 15.8091 145.498 15.8343C146.302 15.8206 147.1 15.9609 147.849 16.2472C148.525 16.5178 149.127 16.9424 149.603 17.4858C150.103 18.0631 150.474 18.7359 150.694 19.4616C150.948 20.3147 151.071 21.2004 151.058 22.0892C151.058 22.2416 151.035 22.6397 150.988 23.3071H143.066C143.16 24.5027 143.481 25.3697 144.02 25.8841C144.308 26.1462 144.646 26.3495 145.015 26.4822C145.383 26.6149 145.775 26.6744 146.168 26.6572C146.705 26.6606 147.24 26.5692 147.745 26.3874C148.302 26.1738 148.831 25.8946 149.319 25.5559L150.584 27.2658C149.92 27.7998 149.17 28.2216 148.365 28.514C147.575 28.7931 146.742 28.9343 145.902 28.9313ZM145.57 17.9678C145.232 17.9541 144.897 18.0204 144.591 18.1611C144.286 18.3017 144.019 18.5127 143.815 18.776C143.394 19.3113 143.143 20.1821 143.064 21.3643H148.027V21.2242C148.027 20.1436 147.82 19.322 147.413 18.7815C147.197 18.5083 146.916 18.2912 146.594 18.1494C146.273 18.0075 145.921 17.9452 145.569 17.9678H145.57ZM100.66 28.9313C100.175 28.9597 99.6901 28.8831 99.2388 28.7071C98.7875 28.531 98.381 28.2598 98.0482 27.9126C97.438 27.2352 97.1285 26.2856 97.1285 25.0897V16.1873H100.183V24.7143C100.136 25.2405 100.266 25.7674 100.553 26.214C100.702 26.3712 100.887 26.493 101.091 26.57C101.296 26.647 101.516 26.6773 101.734 26.6585C102.7 26.6585 103.559 26.0675 104.287 24.9018V16.187H107.342V28.5797H104.693L104.526 26.8467C104.121 27.4941 103.56 28.0332 102.892 28.416C102.205 28.7721 101.436 28.9495 100.66 28.9313H100.66ZM168.5 28.9313C167.793 28.9446 167.092 28.7941 166.455 28.492C165.847 28.1848 165.327 27.7316 164.946 27.1746C164.511 26.5435 164.196 25.8413 164.013 25.101C163.796 24.2152 163.692 23.3064 163.703 22.3954C163.684 21.238 163.895 20.0881 164.324 19.0099C164.686 18.0869 165.301 17.2803 166.101 16.6796C166.974 16.0557 168.048 15.7619 169.123 15.8521C170.199 15.9424 171.206 16.4107 171.959 17.171V10.8917L175.014 11.2195V28.579H172.319L172.105 27.0088C171.721 27.589 171.201 28.0711 170.589 28.4153C169.951 28.7644 169.23 28.9423 168.499 28.931L168.5 28.9313ZM169.552 18.0858C169.164 18.0807 168.782 18.1768 168.445 18.3642C168.107 18.5516 167.827 18.8236 167.632 19.1524C167.165 19.8587 166.928 20.9414 166.928 22.3734C166.928 23.8996 167.138 25.0067 167.548 25.6649C167.729 25.9782 167.993 26.2368 168.313 26.4127C168.633 26.5886 168.996 26.6751 169.362 26.6627C169.867 26.6715 170.364 26.5373 170.793 26.276C171.265 25.959 171.663 25.5478 171.961 25.0694V19.397C171.652 19.009 171.277 18.6761 170.853 18.4126C170.457 18.1891 170.007 18.076 169.55 18.0854L169.552 18.0858ZM114.956 28.931C114.538 28.9534 114.121 28.8913 113.729 28.7483C113.337 28.6054 112.979 28.3847 112.678 28.1001C112.097 27.4535 111.801 26.6068 111.855 25.7461V11.2209L114.91 10.8934V25.6532C114.91 26.2285 115.151 26.5199 115.626 26.5199C115.869 26.5191 116.111 26.4796 116.342 26.4029L116.985 28.5112C116.346 28.7916 115.654 28.9346 114.954 28.9307L114.956 28.931ZM83.124 28.5808H79.7828L78.757 24.8327H73.2923L72.2665 28.5808H68.9971L74.1275 12.3931H78.0175L83.1237 28.5808H83.124ZM76.0129 14.7585L73.9126 22.489H78.1125L76.0126 14.7585H76.0129ZM133.712 28.5808H129.963L124.928 12.3931H128.316L131.896 25.84L135.379 12.3931H138.601L133.71 28.5808H133.712ZM157.812 28.5808H154.757V16.188H157.407L157.693 18.6239C157.93 17.8351 158.384 17.1259 159.006 16.5744C159.555 16.1073 160.259 15.8532 160.986 15.8598C161.413 15.8557 161.839 15.911 162.25 16.0242L161.724 18.9287C161.358 18.8372 160.981 18.7902 160.603 18.7887C160.267 18.7749 159.932 18.8387 159.625 18.9749C159.318 19.1111 159.049 19.316 158.837 19.5731C158.322 20.2909 157.972 21.1099 157.811 21.9736V28.5794L157.812 28.5808ZM93.8375 28.5808H84.4101V26.426L90.5431 18.5306H84.9358V16.1883H94.0271V18.3435L87.9165 26.2364H94.1462L93.8357 28.5787L93.8375 28.5808Z" fill="white"/>
<path d="M39.6239 40.9999C40.4618 40.1948 41.4505 39.2473 42.2081 38.5207C42.2457 38.4845 42.2903 38.4559 42.3392 38.4368C42.3882 38.4176 42.4405 38.4082 42.4931 38.4091C42.5458 38.41 42.5978 38.4212 42.646 38.442C42.6943 38.4628 42.7378 38.4928 42.7741 38.5303C43.2441 39.0182 43.7943 39.5542 44.4627 40.1439C44.6863 40.3407 45.1741 40.918 45.4383 40.9999H39.6239ZM3.67169 40.9999C3.02823 40.9998 2.39611 40.8334 1.8389 40.5175C1.28169 40.2016 0.819029 39.7472 0.497306 39.2002C0.175584 38.6531 0.00617142 38.0325 0.00610354 37.4008C0.00603566 36.7691 0.175273 36.1486 0.496879 35.6014L20.6218 1.38096C20.5204 1.79264 20.4795 2.21645 20.5002 2.63951C20.5675 4.78089 21.1955 5.84951 23.0635 9.02649L27.3446 16.3046C27.4271 16.4414 27.4674 16.5988 27.4603 16.7576C27.4533 16.9165 27.3994 17.0699 27.305 17.1991C26.7005 18.0296 26.0111 18.9747 25.2748 19.9859C25.2478 20.0231 25.2126 20.0539 25.1718 20.0759C25.1311 20.098 25.0858 20.1107 25.0393 20.1133C24.9928 20.1158 24.9464 20.1081 24.9034 20.0906C24.8603 20.0732 24.8219 20.0464 24.7908 20.0124L23.6024 18.6734C23.5025 18.5611 23.3661 18.4864 23.2163 18.462C23.0665 18.4377 22.9127 18.4652 22.7813 18.5399L21.0424 19.5252C20.7927 19.6665 20.594 19.8805 20.4735 20.1375C20.3531 20.3945 20.317 20.6819 20.3702 20.9599C20.6043 22.0248 21.1158 23.0118 21.8548 23.8245C21.9505 23.9352 22.0062 24.0739 22.013 24.219C22.0197 24.3641 21.9773 24.5073 21.8922 24.6261C19.042 28.538 16.3456 32.239 15.6892 33.1421C14.1696 35.2329 14.2873 36.2654 14.9728 37.4321C15.6583 38.5988 16.5533 37.3468 16.5533 37.3468L18.8433 35.0878C21.4465 32.486 25.8783 28.0003 27.2275 26.8333C28.4596 25.7885 29.8143 24.8917 31.2627 24.162C31.413 24.0912 31.585 24.0792 31.744 24.1283C31.903 24.1774 32.037 24.2841 32.1188 24.4266L35.6497 30.43C35.6497 30.43 37.28 33.0269 38.6496 34.3821C38.7445 34.4726 38.8077 34.5903 38.83 34.7183C38.8523 34.8463 38.8325 34.978 38.7737 35.0943L36.0657 40.3025C35.942 40.5188 35.8604 40.7558 35.8249 41.0013L3.67169 40.9999Z" fill="#45B97C"/>
<path d="M45.3331 39.6503C45.1474 38.7867 44.9497 38.0518 44.7545 37.4078C44.7395 37.3582 44.7348 37.3062 44.7405 37.2548C44.7462 37.2034 44.7623 37.1537 44.7878 37.1085C44.8133 37.0633 44.8478 37.0235 44.8891 36.9915C44.9305 36.9594 44.9778 36.9358 45.0285 36.922C46.0483 36.6412 47.3794 36.2744 48.5079 35.9648L45.6012 40.9075C45.6607 40.6422 45.3955 39.9379 45.3331 39.6503ZM49.67 32.5907L43.7213 32.2886C43.5892 32.2807 43.4631 32.2317 43.3613 32.1487C43.2594 32.0657 43.1871 31.9529 43.155 31.8269C42.6437 29.9859 41.1693 27.3012 41.1693 27.3012L37.6395 21.2968C37.555 21.1558 37.5282 20.9886 37.5645 20.8289C37.6008 20.6692 37.6975 20.529 37.8351 20.4367C39.2029 19.57 40.6712 18.8666 42.2088 18.3414C43.9127 17.7779 50.0856 16.2527 53.6827 15.3406L56.8207 14.5224C56.8207 14.5224 58.3708 14.3869 57.6856 13.2212C57.0005 12.0556 56.1478 11.4391 53.5429 11.6854C52.4183 11.792 47.8063 12.2338 42.93 12.7017C42.7826 12.7146 42.635 12.6791 42.5104 12.6008C42.3857 12.5224 42.2911 12.4057 42.2414 12.2689C41.894 11.2343 41.2788 10.306 40.4561 9.57498C40.2377 9.39074 39.9664 9.27767 39.6797 9.25142C39.393 9.22516 39.105 9.28701 38.8557 9.42841L37.116 10.4145C36.9847 10.489 36.8839 10.606 36.8307 10.7454C36.7775 10.8849 36.7752 11.0381 36.8244 11.1789L37.411 12.8593C37.4254 12.9028 37.4295 12.9488 37.4233 12.9941C37.417 13.0394 37.4006 13.0827 37.375 13.1209C37.3495 13.159 37.3155 13.1911 37.2756 13.2147C37.2357 13.2382 37.191 13.2527 37.1447 13.257C35.8852 13.3774 34.7062 13.491 33.6716 13.5901C33.511 13.6052 33.3494 13.5742 33.2063 13.5009C33.0633 13.4276 32.9449 13.3152 32.8656 13.1772L28.5851 5.89878C26.7172 2.7218 26.0882 1.65386 24.2332 0.525024C23.8701 0.296369 23.4757 0.119589 23.062 0H63.3118C63.9553 9.13063e-05 64.5875 0.16645 65.1447 0.482343C65.702 0.798236 66.1647 1.25255 66.4865 1.79963C66.8082 2.34671 66.9777 2.96728 66.9778 3.59901C66.9779 4.23074 66.8086 4.85136 66.487 5.39852L50.4102 32.7348C50.1747 32.6423 49.9237 32.5934 49.67 32.5907Z" fill="#2484C6"/>
</g>
<defs>
<clipPath id="clip0">
<rect width="190" height="41" fill="white"/>
</clipPath>
</defs>
</svg>
