<svg width="67" height="42" viewBox="0 0 67 42" fill="none" xmlns="http://www.w3.org/2000/svg">
<path d="M39.6239 40.9998C40.4618 40.1947 41.4505 39.2472 42.2081 38.5206C42.2457 38.4844 42.2903 38.4558 42.3392 38.4367C42.3882 38.4175 42.4405 38.4081 42.4931 38.409C42.5458 38.4099 42.5978 38.4211 42.646 38.4419C42.6943 38.4627 42.7378 38.4927 42.7741 38.5302C43.2441 39.0181 43.7943 39.5541 44.4627 40.1438C44.6863 40.3406 45.1741 40.9179 45.4383 40.9998H39.6239ZM3.67169 40.9998C3.02823 40.9997 2.39611 40.8333 1.8389 40.5174C1.28169 40.2015 0.819029 39.7471 0.497306 39.2001C0.175584 38.653 0.00617142 38.0324 0.00610354 37.4007C0.00603566 36.769 0.175273 36.1485 0.496879 35.6013L20.6218 1.38086C20.5204 1.79254 20.4795 2.21635 20.5002 2.63941C20.5675 4.78079 21.1955 5.84941 23.0635 9.02639L27.3446 16.3045C27.4271 16.4413 27.4674 16.5987 27.4603 16.7575C27.4533 16.9164 27.3994 17.0698 27.305 17.199C26.7005 18.0295 26.0111 18.9746 25.2748 19.9858C25.2478 20.023 25.2126 20.0538 25.1718 20.0758C25.1311 20.0979 25.0858 20.1106 25.0393 20.1132C24.9928 20.1157 24.9464 20.108 24.9034 20.0905C24.8603 20.0731 24.8219 20.0463 24.7908 20.0123L23.6024 18.6733C23.5025 18.561 23.3661 18.4863 23.2163 18.4619C23.0665 18.4376 22.9127 18.4651 22.7813 18.5398L21.0424 19.5251C20.7927 19.6664 20.594 19.8804 20.4735 20.1374C20.3531 20.3944 20.317 20.6818 20.3702 20.9598C20.6043 22.0247 21.1158 23.0117 21.8548 23.8244C21.9505 23.9351 22.0062 24.0738 22.013 24.2189C22.0197 24.364 21.9773 24.5072 21.8922 24.626C19.042 28.5379 16.3456 32.2389 15.6892 33.142C14.1696 35.2328 14.2873 36.2653 14.9728 37.432C15.6583 38.5987 16.5533 37.3467 16.5533 37.3467L18.8433 35.0877C21.4465 32.4859 25.8783 28.0002 27.2275 26.8332C28.4596 25.7884 29.8143 24.8916 31.2627 24.1619C31.413 24.0911 31.585 24.0791 31.744 24.1282C31.903 24.1773 32.037 24.284 32.1188 24.4265L35.6497 30.4299C35.6497 30.4299 37.28 33.0268 38.6496 34.382C38.7445 34.4725 38.8077 34.5902 38.83 34.7182C38.8523 34.8462 38.8325 34.9779 38.7737 35.0942L36.0657 40.3024C35.942 40.5187 35.8604 40.7557 35.8249 41.0012L3.67169 40.9998Z" fill="#45B97C"/>
<path d="M45.3331 39.6503C45.1474 38.7867 44.9497 38.0518 44.7545 37.4078C44.7395 37.3582 44.7348 37.3062 44.7405 37.2548C44.7462 37.2034 44.7623 37.1537 44.7878 37.1085C44.8133 37.0633 44.8478 37.0235 44.8891 36.9915C44.9305 36.9594 44.9778 36.9358 45.0285 36.922C46.0483 36.6412 47.3794 36.2744 48.5079 35.9648L45.6012 40.9075C45.6607 40.6422 45.3955 39.9379 45.3331 39.6503ZM49.67 32.5907L43.7213 32.2886C43.5892 32.2807 43.4631 32.2317 43.3613 32.1487C43.2594 32.0657 43.1871 31.9529 43.155 31.8269C42.6437 29.9859 41.1693 27.3012 41.1693 27.3012L37.6395 21.2968C37.555 21.1558 37.5282 20.9886 37.5645 20.8289C37.6008 20.6692 37.6975 20.529 37.8351 20.4367C39.2029 19.57 40.6712 18.8666 42.2088 18.3414C43.9127 17.7779 50.0856 16.2527 53.6827 15.3406L56.8207 14.5224C56.8207 14.5224 58.3708 14.3869 57.6856 13.2212C57.0005 12.0556 56.1478 11.4391 53.5429 11.6854C52.4183 11.792 47.8063 12.2338 42.93 12.7017C42.7826 12.7146 42.635 12.6791 42.5104 12.6008C42.3857 12.5224 42.2911 12.4057 42.2414 12.2689C41.894 11.2343 41.2788 10.306 40.4561 9.57498C40.2377 9.39074 39.9664 9.27767 39.6797 9.25142C39.393 9.22516 39.105 9.28701 38.8557 9.42841L37.116 10.4145C36.9847 10.489 36.8839 10.606 36.8307 10.7454C36.7775 10.8849 36.7752 11.0381 36.8244 11.1789L37.411 12.8593C37.4254 12.9028 37.4295 12.9488 37.4233 12.9941C37.417 13.0394 37.4006 13.0827 37.375 13.1209C37.3495 13.159 37.3155 13.1911 37.2756 13.2147C37.2357 13.2382 37.191 13.2527 37.1447 13.257C35.8852 13.3774 34.7062 13.491 33.6716 13.5901C33.511 13.6052 33.3494 13.5742 33.2063 13.5009C33.0633 13.4276 32.9449 13.3152 32.8656 13.1772L28.5851 5.89878C26.7172 2.7218 26.0882 1.65386 24.2332 0.525024C23.8701 0.296369 23.4757 0.119589 23.062 0H63.3118C63.9553 9.13063e-05 64.5875 0.16645 65.1447 0.482343C65.702 0.798236 66.1647 1.25255 66.4865 1.79963C66.8082 2.34671 66.9777 2.96728 66.9778 3.59901C66.9779 4.23074 66.8086 4.85136 66.487 5.39852L50.4102 32.7348C50.1747 32.6423 49.9237 32.5934 49.67 32.5907Z" fill="#2484C6"/>
</svg>
